<?xml version="1.0" encoding="utf-8"?>
<!-- Generator: Adobe Illustrator 27.8.1, SVG Export Plug-In . SVG Version: 6.00 Build 0)  -->
<svg version="1.1" id="Layer_1" xmlns="http://www.w3.org/2000/svg" xmlns:xlink="http://www.w3.org/1999/xlink" x="0px" y="0px"
	 viewBox="0 0 720 720" style="enable-background:new 0 0 720 720;" xml:space="preserve">
<g>
	<g>
		<path d="M134.1,562.4l28.4,28.5l126.3-126.4c-7.8-11.7-14.1-24.4-19.1-37.8L134.1,562.4z"/>
		<path d="M294.8,472.6l-67,161.9l37.2,15.4l60.4-145.8C313.9,494.9,303.7,484.3,294.8,472.6z"/>
		<path d="M341.9,665.2h40.2V534.6c-14.3-4.6-27.7-11-40.2-18.8V665.2z"/>
		<path d="M561.5,590.9l28.4-28.5l-51.9-52c-11.4,8.1-23.7,14.8-36.9,20L561.5,590.9z"/>
		<path d="M414.3,541.6l44.8,108.3l37.1-15.4l-38.5-92.9c-7.2,0.9-14.4,1.5-21.8,1.5C428.6,543,421.4,542.4,414.3,541.6z"/>
		<path d="M75.2,460l15.4,37.2l178-73.8c-4.4-12.7-7.5-26-8.8-39.9L75.2,460z"/>
		<path d="M633.4,497.1l15.4-37.2l-51.6-21.4c-5.6,12.5-12.7,24.2-20.9,34.9L633.4,497.1z"/>
		<g>
			<path d="M259,363.6c0.1-4,0.3-8,0.6-12c-0.4,3.7-0.6,7.4-0.6,11.2C259,363.1,259,363.4,259,363.6z"/>
			<path d="M259,363.6c0-0.3,0-0.5,0-0.8c0-3.8,0.2-7.5,0.6-11.2c0.2-3,0.6-6,1-9H59.8V383h199.9c-0.5-5.6-0.9-11.3-0.9-17.1
				C258.9,365.1,259,364.4,259,363.6z"/>
			<path d="M134.1,562.4l28.4,28.5l126.3-126.4c-7.8-11.7-14.1-24.4-19.1-37.8L134.1,562.4z"/>
			<path d="M294.8,472.6l-67,161.9l37.2,15.4l60.4-145.8C313.9,494.9,303.7,484.3,294.8,472.6z"/>
			<path d="M341.9,665.2h40.2V534.6c-14.3-4.6-27.7-11-40.2-18.8V665.2z"/>
			<path d="M561.5,590.9l28.4-28.5l-51.9-52c-11.4,8.1-23.7,14.8-36.9,20L561.5,590.9z"/>
			<path d="M414.3,541.6l44.8,108.3l37.1-15.4l-38.5-92.9c-7.2,0.9-14.4,1.5-21.8,1.5C428.6,543,421.4,542.4,414.3,541.6z"/>
			<path d="M75.2,460l15.4,37.2l178-73.8c-4.4-12.7-7.5-26-8.8-39.9L75.2,460z"/>
			<path d="M633.4,497.1l15.4-37.2l-51.6-21.4c-5.6,12.5-12.7,24.2-20.9,34.9L633.4,497.1z"/>
			<path d="M259,363.6c0-0.3,0-0.5,0-0.8c0-3.8,0.2-7.5,0.6-11.2c0.2-3,0.6-6,1-9H59.8V383h199.9c-0.5-5.6-0.9-11.3-0.9-17.1
				C258.9,365.1,259,364.4,259,363.6z"/>
			<polygon points="260.9,383 260.9,383 260.9,383 			"/>
		</g>
		<polygon points="341.9,464 341.9,464 341.9,464 		"/>
		<polygon points="419.3,448.6 419.3,448.6 419.3,448.6 		"/>
		<polygon points="447.7,420.2 447.7,420.2 447.7,420.2 		"/>
	</g>
	<g>
		<path d="M590.2,163.3l-28.4-28.5L435.5,261.2c7.8,11.7,14.1,24.4,19.1,37.8L590.2,163.3z"/>
		<path d="M429.5,253.2l67-161.9l-37.2-15.4L399,221.7C410.5,230.8,420.6,241.5,429.5,253.2z"/>
		<path d="M382.4,60.5h-40.2v130.6c14.3,4.6,27.7,11,40.2,18.8V60.5z"/>
		<path d="M162.9,134.8l-28.4,28.5l51.9,52c11.4-8.1,23.7-14.8,36.9-20L162.9,134.8z"/>
		<path d="M310.1,184.2L265.2,75.9l-37.1,15.4l38.5,92.9c7.2-0.9,14.4-1.5,21.8-1.5C295.8,182.7,303,183.3,310.1,184.2z"/>
		<path d="M649.2,265.8l-15.4-37.2l-178,73.8c4.4,12.7,7.5,26,8.8,39.9L649.2,265.8z"/>
		<path d="M90.9,228.6l-15.4,37.2l51.6,21.4c5.6-12.5,12.7-24.2,20.9-34.9L90.9,228.6z"/>
		<g>
			<path d="M465.3,362.1c-0.1,4-0.3,8-0.6,12c0.4-3.7,0.6-7.4,0.6-11.2C465.4,362.6,465.3,362.4,465.3,362.1z"/>
			<path d="M465.3,362.1c0,0.3,0,0.5,0,0.8c0,3.8-0.2,7.5-0.6,11.2c-0.2,3-0.6,6-1,9h200.7v-40.2H464.6c0.5,5.6,0.9,11.3,0.9,17.1
				C465.5,360.6,465.4,361.3,465.3,362.1z"/>
			<path d="M590.2,163.3l-28.4-28.5L435.5,261.2c7.8,11.7,14.1,24.4,19.1,37.8L590.2,163.3z"/>
			<path d="M429.5,253.2l67-161.9l-37.2-15.4L399,221.7C410.5,230.8,420.6,241.5,429.5,253.2z"/>
			<path d="M382.4,60.5h-40.2v130.6c14.3,4.6,27.7,11,40.2,18.8V60.5z"/>
			<path d="M162.9,134.8l-28.4,28.5l51.9,52c11.4-8.1,23.7-14.8,36.9-20L162.9,134.8z"/>
			<path d="M310.1,184.2L265.2,75.9l-37.1,15.4l38.5,92.9c7.2-0.9,14.4-1.5,21.8-1.5C295.8,182.7,303,183.3,310.1,184.2z"/>
			<path d="M649.2,265.8l-15.4-37.2l-178,73.8c4.4,12.7,7.5,26,8.8,39.9L649.2,265.8z"/>
			<path d="M90.9,228.6l-15.4,37.2l51.6,21.4c5.6-12.5,12.7-24.2,20.9-34.9L90.9,228.6z"/>
			<path d="M465.3,362.1c0,0.3,0,0.5,0,0.8c0,3.8-0.2,7.5-0.6,11.2c-0.2,3-0.6,6-1,9h200.7v-40.2H464.6c0.5,5.6,0.9,11.3,0.9,17.1
				C465.5,360.6,465.4,361.3,465.3,362.1z"/>
			<polygon points="463.4,342.8 463.4,342.8 463.4,342.8 			"/>
		</g>
		<polygon points="382.4,261.8 382.4,261.8 382.4,261.8 		"/>
		<polygon points="305,277.1 305.1,277.1 305.1,277.1 		"/>
		<polygon points="276.6,305.6 276.6,305.6 276.6,305.6 		"/>
	</g>
</g>
</svg>
